<?xml version="1.0" standalone="no"?>
<!DOCTYPE svg PUBLIC "-//W3C//DTD SVG 20010904//EN"
 "http://www.w3.org/TR/2001/REC-SVG-20010904/DTD/svg10.dtd">
<svg version="1.0" xmlns="http://www.w3.org/2000/svg"
 width="700.000000pt" height="700.000000pt" viewBox="0 0 700.000000 700.000000"
 preserveAspectRatio="xMidYMid meet">
<metadata>
Created by potrace 1.11, written by Peter Selinger 2001-2013
</metadata>
<g transform="translate(0.000000,700.000000) scale(0.100000,-0.100000)"
fill="#000000" stroke="none">
<path d="M3327 6414 c-1 -1 -31 -5 -67 -8 -110 -9 -172 -17 -260 -33 -47 -8
-96 -17 -110 -20 -107 -19 -362 -98 -505 -157 -271 -113 -495 -248 -770 -469
-75 -59 -310 -302 -386 -397 -328 -411 -547 -913 -615 -1409 -3 -25 -8 -57
-10 -71 -17 -97 -23 -403 -11 -570 39 -575 262 -1138 636 -1610 79 -101 329
-356 396 -405 22 -17 49 -38 60 -48 35 -33 210 -155 304 -212 258 -157 638
-310 871 -350 19 -3 51 -10 70 -15 45 -13 226 -38 327 -47 149 -12 518 -5 597
12 12 2 41 7 66 10 67 8 191 32 283 56 45 12 87 22 92 23 47 11 182 57 285 98
928 370 1620 1216 1789 2188 35 198 44 308 44 515 0 216 -5 274 -39 495 -61
386 -223 789 -456 1137 -353 528 -889 936 -1498 1139 -111 37 -309 90 -376 99
-21 3 -61 10 -89 15 -133 23 -247 32 -453 34 -95 1 -174 1 -175 0z m269 -585
c303 -6 637 -91 939 -239 109 -53 325 -186 386 -237 293 -246 447 -423 612
-708 90 -157 203 -439 231 -581 2 -11 9 -39 15 -64 5 -25 13 -63 17 -85 4 -22
8 -42 9 -45 1 -3 5 -39 9 -80 4 -41 10 -88 12 -105 5 -39 5 -328 -1 -380 -13
-128 -22 -198 -30 -225 -2 -8 -7 -31 -10 -50 -29 -172 -131 -453 -230 -636
-173 -317 -369 -539 -710 -802 -46 -36 -231 -143 -320 -187 -267 -129 -513
-197 -830 -230 -58 -6 -316 -6 -393 0 -92 7 -192 23 -362 60 -192 41 -479 163
-680 289 -226 141 -388 288 -610 552 -10 12 -54 76 -98 143 -212 321 -339 685
-377 1081 -6 66 -7 330 -1 385 2 17 6 62 10 100 12 120 55 304 108 463 153
464 468 882 883 1173 336 235 773 385 1185 406 63 3 117 7 119 9 2 2 7 2 10
-1 4 -2 52 -5 107 -6z"/>
<path d="M3210 4082 l1 -877 762 -457 c744 -446 762 -457 777 -436 8 11 59 91
112 178 l97 158 -132 79 c-73 43 -140 83 -149 88 -10 6 -59 35 -110 65 -51 30
-97 57 -103 60 -5 3 -21 12 -35 21 -71 47 -553 329 -561 329 -5 0 -9 5 -9 10
0 6 -4 10 -9 10 -14 0 -189 106 -201 122 -3 3 -5 348 -4 766 l0 760 -218 0
-218 1 0 -877z"/>
</g>
</svg>
